<svg id="visual" viewBox="0 0 1580 708" width="1580" height="708" xmlns="http://www.w3.org/2000/svg" xmlns:xlink="http://www.w3.org/1999/xlink" version="1.1"><rect x="0" y="0" width="1580" height="708" fill="#ecf0f1"></rect><defs><linearGradient id="grad1_0" x1="55.2%" y1="100%" x2="100%" y2="0%"><stop offset="5.36723163841808%" stop-color="#ecf0f1" stop-opacity="1"></stop><stop offset="94.63276836158192%" stop-color="#ecf0f1" stop-opacity="1"></stop></linearGradient></defs><defs><linearGradient id="grad2_0" x1="0%" y1="100%" x2="44.8%" y2="0%"><stop offset="5.36723163841808%" stop-color="#ecf0f1" stop-opacity="1"></stop><stop offset="94.63276836158192%" stop-color="#ecf0f1" stop-opacity="1"></stop></linearGradient></defs><g transform="translate(1580, 708)"><path d="M-318.6 0C-307.4 -53.8 -296.2 -107.5 -271.1 -156.5C-245.9 -205.5 -206.8 -249.7 -159.3 -275.9C-111.8 -302.1 -55.9 -310.4 0 -318.6L0 0Z" fill="#27ae60"></path></g><g transform="translate(0, 0)"><path d="M318.6 0C304.6 52.2 290.7 104.3 265.9 153.5C241.1 202.7 205.4 248.9 159.3 275.9C113.2 302.9 56.6 310.8 0 318.6L0 0Z" fill="#27ae60"></path></g></svg>